<?xml version="1.0" standalone="no"?>
<!DOCTYPE svg PUBLIC "-//W3C//DTD SVG 20010904//EN"
 "http://www.w3.org/TR/2001/REC-SVG-20010904/DTD/svg10.dtd">
<svg version="1.0" xmlns="http://www.w3.org/2000/svg"
 width="638.000000pt" height="638.000000pt" viewBox="0 0 638.000000 638.000000"
 preserveAspectRatio="xMidYMid meet">
<metadata>
Created by potrace 1.14, written by Peter Selinger 2001-2017
</metadata>
<g transform="translate(0.000000,638.000000) scale(0.100000,-0.100000)"
fill="#000000" stroke="none">
<path d="M3118 6287 c-92 -150 -163 -331 -203 -513 -10 -43 -19 -81 -21 -82
-1 -2 -22 10 -46 26 -150 103 -350 161 -544 156 -72 -1 -175 -11 -181 -18 -1
-1 21 -20 49 -42 65 -49 202 -183 255 -249 64 -80 136 -193 186 -292 46 -93
108 -271 121 -350 l7 -41 -138 -77 c-76 -43 -155 -89 -175 -101 -21 -13 -39
-24 -42 -24 -2 0 -48 -25 -102 -56 -127 -72 -406 -229 -464 -262 -317 -177
-584 -331 -620 -360 -163 -130 -289 -326 -345 -534 l-24 -93 3 -875 c2 -481 7
-895 11 -920 44 -281 240 -558 495 -698 49 -26 876 -486 990 -550 495 -276
529 -292 684 -317 115 -19 329 -12 432 14 109 27 158 50 396 184 112 63 223
125 248 139 121 67 287 160 300 168 30 18 529 298 620 348 36 19 89 51 119 69
176 112 336 345 396 575 l24 93 -5 700 c-6 784 -11 1078 -19 1116 -54 263
-245 535 -460 654 -27 16 -120 67 -205 115 -85 48 -184 103 -220 122 -36 19
-117 64 -180 100 -63 36 -144 81 -180 100 -36 20 -117 65 -180 100 -142 80
-203 114 -349 195 -63 35 -116 65 -119 67 -8 9 49 209 84 294 48 117 127 257
196 347 74 97 176 203 269 277 77 62 78 63 51 70 -15 4 -76 9 -137 11 -214 7
-404 -47 -576 -163 l-56 -38 -16 82 c-22 109 -67 253 -112 354 -39 90 -103
205 -117 210 -4 2 -8 9 -8 16 0 7 -8 20 -18 29 -17 16 -21 11 -74 -76z"/>
</g>
</svg>
