<?xml version="1.0" encoding="utf-8"?>
<svg width="24" height="24" viewBox="0 0 24 24" fill="none" xmlns="http://www.w3.org/2000/svg">
  <path d="M17.498 14.381L17.508 14.388C16.1134 15.757 14.1404 16.327 12.314 16.327C10.4876 16.327 8.5146 15.766 7.12 14.388L7.13 14.381C4.5 11.91 4.5 7.5 4.5 7.5C4.5 7.5 7.5 4.5 12 4.5C16.5 4.5 19.5 7.5 19.5 7.5C19.5 7.5 22.5 11.91 19.87 14.381H19.86L17.498 14.381Z" fill="#25D366"/>
  <path d="M12 3C6.48 3 2 6.9 2 12C2 14.1 2.8 16.1 4.3 17.5L3 22L7.5 20.5C9 21.4 10.7 22 12.5 22C18 22 22.5 18.1 22.5 13C22.5 7.9 18 3 12 3ZM18.5 15.6C18.5 15.6 17.3 17.5 12 17.5C10.5 17.5 8.9 17 7.8 16.2L7.5 16L5 17L6 14.5L5.8 14.2C4.8 12.9 4.5 11.5 4.5 10C4.5 5.6 7.8 3 12 3C16.2 3 19.5 5.6 19.5 10C19.5 12.1 18.5 15.6 18.5 15.6Z" fill="#25D366"/>
  <path d="M12 8C9.8 8 8 9.8 8 12C8 14.2 9.8 16 12 16C14.2 16 16 14.2 16 12C16 9.8 14.2 8 12 8ZM12 14.5C10.6 14.5 9.5 13.4 9.5 12C9.5 10.6 10.6 9.5 12 9.5C13.4 9.5 14.5 10.6 14.5 12C14.5 13.4 13.4 14.5 12 14.5Z" fill="white"/>
  <path d="M16.5 11.5C17.1 11.5 17.5 11.1 17.5 10.5C17.5 9.9 17.1 9.5 16.5 9.5C15.9 9.5 15.5 9.9 15.5 10.5C15.5 11.1 15.9 11.5 16.5 11.5Z" fill="white"/>
  <path d="M7.5 11.5C8.1 11.5 8.5 11.1 8.5 10.5C8.5 9.9 8.1 9.5 7.5 9.5C6.9 9.5 6.5 9.9 6.5 10.5C6.5 11.1 6.9 11.5 7.5 11.5Z" fill="white"/>
</svg>
